<svg xmlns="http://www.w3.org/2000/svg" viewBox="0 0 525.6 148.53"><defs><style>.cls-1{fill:#1a1a1a;}.cls-2{fill:#db6161;}.cls-3{fill:#e59c61;}.cls-4{fill:#efd96a;}.cls-5{fill:#c55fdd;}.cls-6{fill:#4ece4e;}.cls-7{fill:#5d8dd8;}.cls-8{fill:#eabe32;}</style></defs><title>Asset 8</title><g id="Layer_2" data-name="Layer 2"><g id="Layer_1-2" data-name="Layer 1"><path class="cls-1" d="M28.71,145.43H0V2H57.41a55.77,55.77,0,0,1,15.2,2.05,57.31,57.31,0,0,1,13.66,5.8,58.29,58.29,0,0,1,11.6,9,57.79,57.79,0,0,1,14.8,25.36,57.18,57.18,0,0,1,.2,29.6,58.8,58.8,0,0,1-5.3,13.31,56.45,56.45,0,0,1-8.45,11.6,57.62,57.62,0,0,1-11.2,9.2l15.9,37.51H73.31l-12.5-28.91-32.1.2Zm0-114.72V88.12h28.7a27.67,27.67,0,0,0,11.1-2.25A28.91,28.91,0,0,0,83.77,70.56a28.75,28.75,0,0,0,0-22.3A28.84,28.84,0,0,0,68.51,33a27.67,27.67,0,0,0-11.1-2.25Z"/><path class="cls-1" d="M402.05,130.72a74,74,0,0,1-67.76,15.16A74.71,74.71,0,0,1,282.38,94a74.4,74.4,0,0,1,0-39.36,74.11,74.11,0,0,1,7.5-17.75A74.63,74.63,0,0,1,334.29,2.65,72.3,72.3,0,0,1,353.94,0a74.16,74.16,0,0,1,25.71,4.55,71.48,71.48,0,0,1,22.4,13.25l-15.2,25a42.8,42.8,0,0,0-14.91-10.45,45.47,45.47,0,0,0-18-3.65,44.25,44.25,0,0,0-17.8,3.6,46.72,46.72,0,0,0-14.5,9.75,45.53,45.53,0,0,0-9.81,14.5,44.39,44.39,0,0,0-3.6,17.75A43.68,43.68,0,0,0,311.83,92a46.28,46.28,0,0,0,24.31,24.25,44.25,44.25,0,0,0,17.8,3.6,45.47,45.47,0,0,0,18-3.65,42.93,42.93,0,0,0,14.91-10.45Z"/><path class="cls-2" d="M193.86,59.67V33.27a4.2,4.2,0,0,0-5-4.13,46,46,0,0,0-25.09,14.23,4.2,4.2,0,0,0,1,6.42l22.75,13.49A4.2,4.2,0,0,0,193.86,59.67Z"/><path class="cls-3" d="M208.21,63.5l23.07-13.32a4.21,4.21,0,0,0,1-6.45,46,46,0,0,0-25.41-14.59,4.2,4.2,0,0,0-5,4.13V59.86A4.2,4.2,0,0,0,208.21,63.5Z"/><path class="cls-4" d="M212,77.82l23.25,13.79a4.21,4.21,0,0,0,6.12-2.27,46.19,46.19,0,0,0,.06-29.92,4.2,4.2,0,0,0-6.08-2.31L212.06,70.57A4.2,4.2,0,0,0,212,77.82Z"/><path class="cls-5" d="M183.74,70.4,160.6,56.67a4.2,4.2,0,0,0-6.09,2.16,46.21,46.21,0,0,0-.31,30,4.22,4.22,0,0,0,6.1,2.33l23.4-13.51A4.2,4.2,0,0,0,183.74,70.4Z"/><path class="cls-6" d="M201.91,88.55V115.3a4.2,4.2,0,0,0,5,4.13A46,46,0,0,0,232.2,105a4.21,4.21,0,0,0-1-6.41L208.25,84.94A4.2,4.2,0,0,0,201.91,88.55Z"/><path class="cls-7" d="M187.56,84.72,164.28,98.16a4.21,4.21,0,0,0-1,6.43,46,46,0,0,0,25.63,14.84,4.2,4.2,0,0,0,5-4.13V88.35A4.2,4.2,0,0,0,187.56,84.72Z"/><path class="cls-8" d="M197.43.25a74,74,0,1,0,74,74A74,74,0,0,0,197.43.25Zm52.32,74.12a52.32,52.32,0,1,1-52.32-52.32A52.38,52.38,0,0,1,249.75,74.37Z"/><path class="cls-1" d="M512.93,72.15A43,43,0,0,0,499.22,63a42.25,42.25,0,0,0-16.75-3.35h-28.7a14.27,14.27,0,0,1-5.6-1.1,14,14,0,0,1-7.61-7.65,14.66,14.66,0,0,1-1.1-5.65,14.19,14.19,0,0,1,4.15-10.15A14.13,14.13,0,0,1,448.17,32a14.27,14.27,0,0,1,5.6-1.1h28.82a14.15,14.15,0,0,1,13.2,8.71,14,14,0,0,1,1.1,5.42H525.6a42.45,42.45,0,0,0-3.35-16.58,42.77,42.77,0,0,0-22.91-22.9,42.25,42.25,0,0,0-16.75-3.35H453.77a41.3,41.3,0,0,0-16.71,3.4,43.69,43.69,0,0,0-22.9,22.9,41.3,41.3,0,0,0-3.4,16.71A41.63,41.63,0,0,0,414.16,62a43.56,43.56,0,0,0,22.9,23,41.31,41.31,0,0,0,16.71,3.41h28.7a14.09,14.09,0,0,1,10.15,4.15,14.29,14.29,0,0,1-10.15,24.45H453.59a14.31,14.31,0,0,1-5.6-1.1,14.13,14.13,0,0,1-8.69-13H410.59a42.19,42.19,0,0,0,3.34,16.58,42.92,42.92,0,0,0,22.91,22.91,42.28,42.28,0,0,0,16.75,3.35h28.88a41.77,41.77,0,0,0,16.75-3.4A43.82,43.82,0,0,0,512.93,133a43.34,43.34,0,0,0,9.2-13.65,43.45,43.45,0,0,0,0-33.46A43.22,43.22,0,0,0,512.93,72.15Z"/></g></g></svg>