<svg xmlns="http://www.w3.org/2000/svg" viewBox="0 0 148 148"><defs><style>.cls-1{fill:#db6161;}.cls-2{fill:#e59c61;}.cls-3{fill:#efd96a;}.cls-4{fill:#c55fdd;}.cls-5{fill:#4ece4e;}.cls-6{fill:#5d8dd8;}.cls-7{fill:#eabe32;}</style></defs><title>Asset 12</title><g id="Layer_2" data-name="Layer 2"><g id="Layer_1-2" data-name="Layer 1"><path class="cls-1" d="M70.42,59.42V33a4.19,4.19,0,0,0-5-4.13A46,46,0,0,0,40.36,43.12a4.19,4.19,0,0,0,1,6.42L64.08,63A4.2,4.2,0,0,0,70.42,59.42Z"/><path class="cls-2" d="M84.77,63.25l23.08-13.32a4.21,4.21,0,0,0,1-6.45A46,46,0,0,0,83.46,28.89a4.2,4.2,0,0,0-5,4.13v26.6A4.2,4.2,0,0,0,84.77,63.25Z"/><path class="cls-3" d="M88.59,77.57l23.24,13.79A4.22,4.22,0,0,0,118,89.09,46.16,46.16,0,0,0,118,59.18a4.2,4.2,0,0,0-6.08-2.31L88.63,70.32A4.2,4.2,0,0,0,88.59,77.57Z"/><path class="cls-4" d="M60.31,70.15,37.17,56.42a4.19,4.19,0,0,0-6.09,2.17,46.21,46.21,0,0,0-.31,30,4.2,4.2,0,0,0,6.09,2.32L60.27,77.4A4.2,4.2,0,0,0,60.31,70.15Z"/><path class="cls-5" d="M78.47,88.3v26.75a4.19,4.19,0,0,0,5,4.13,46,46,0,0,0,25.32-14.47,4.2,4.2,0,0,0-1-6.4l-23-13.62A4.21,4.21,0,0,0,78.47,88.3Z"/><path class="cls-6" d="M64.13,84.47,40.85,97.91a4.21,4.21,0,0,0-1,6.43,46,46,0,0,0,25.63,14.84,4.19,4.19,0,0,0,5-4.13V88.11A4.19,4.19,0,0,0,64.13,84.47Z"/><path class="cls-7" d="M74,0a74,74,0,1,0,74,74A74,74,0,0,0,74,0Zm52.31,74.13A52.32,52.32,0,1,1,74,21.81,52.36,52.36,0,0,1,126.31,74.13Z"/></g></g></svg>